# xmcd CD database file generated by OrangeCD 6.0
#
# Track frame offsets:
#	150
#	18881
#	35136
#	53513
#	69991
#	83432
#	99009
#	123729
#	144807
#	157590
#	178817
#	196520
#	209572
#	228276
#	249064
#
# Disc length: 3487 seconds
#
# Revision: 0
# Processed by: cddbd v1.5.2PL0 Copyright (c) Steve Scherf et al.
# Submitted via: OrangeCD 6.0
#
DISCID=a90d9d0f
DTITLE=Bonnie Raitt - Live at the Rainbow Room - Philadelphia 1972
DYEAR=1972
DGENRE=
TTITLE0=Mighty Tight Woman
TTITLE1=Rollin' and Tumbling
TTITLE2=Any Day Woman
TTITLE3=Woman Be Wise
TTITLE4=Thank You
TTITLE5=Bluebird
TTITLE6=Finest Lovin' Man 
TTITLE7=Big Road
TTITLE8=Been Too Long At The Fair
TTITLE9=Under The Falling Sky
TTITLE10=Walking blues
TTITLE11=Can't find my way home
TTITLE12=Hurry Home Sweet Baby
TTITLE13=Blender Blues
TTITLE14=Since I fell for you
EXTD=
EXTT0=
EXTT1=
EXTT2=
EXTT3=
EXTT4=
EXTT5=
EXTT6=
EXTT7=
EXTT8=
EXTT9=
EXTT10=
EXTT11=
EXTT12=
EXTT13=
EXTT14=
PLAYORDER=
